<?xml version="1.0" encoding="UTF-8"?>
<svg id="Layer_1" data-name="Layer 1" xmlns="http://www.w3.org/2000/svg" viewBox="0 0 1125.54 1110.07">
  <defs>
    <style>
      .cls-1 {
        fill: none;
        stroke: #231f20;
        stroke-miterlimit: 10;
        stroke-width: 16px;
      }

      .cls-1, .cls-2 {
        fill-rule: evenodd;
      }

      .cls-2 {
        fill: #ffa75e;
        stroke-width: 0px;
      }
    </style>
  </defs>
  <g>
    <path class="cls-2" d="M1062.78,63.96H372.38c-34.69,0-62.76,28.07-62.76,62.76v62.76h596.25c53.95,0,94.14,41.67,94.14,94.14v345.2h62.76c34.69,0,62.76-28.07,62.76-62.76V126.72c0-34.69-28.07-62.76-62.76-62.76Z"/>
    <path class="cls-2" d="M905.87,220.87H184.09c-34.69,0-62.76,28.07-62.76,62.76v470.72c0,34.69,28.07,62.76,62.76,62.76h109.84c8.68,0,15.69,7.01,15.69,15.69v172.6c0,25.37,15.27,48.3,38.74,57.98,7.78,3.25,15.93,4.79,24.02,4.79,16.3,0,32.35-6.37,44.37-18.39l222.12-222.12s8.1-10.54,26.24-10.54,240.76,0,240.76,0c34.69,0,62.76-28.07,62.76-62.76v-470.72c0-34.66-28.1-62.76-62.76-62.76Z"/>
    <path class="cls-2" d="M325.31,409.16h203.98c8.68,0,15.69,7.01,15.69,15.69s-7.01,15.69-15.69,15.69h-203.98c-8.68,0-15.69-7.01-15.69-15.69s7.01-15.69,15.69-15.69Z"/>
    <path class="cls-2" d="M654.82,628.83h-329.51c-8.68,0-15.69-7.01-15.69-15.69s7.01-15.69,15.69-15.69h329.51c8.68,0,15.69,7.01,15.69,15.69s-7.01,15.69-15.69,15.69Z"/>
    <path class="cls-2" d="M764.65,534.68h-439.34c-8.68,0-15.69-7.01-15.69-15.69s7.01-15.69,15.69-15.69h439.34c8.68,0,15.69,7.01,15.69,15.69s-7.01,15.69-15.69,15.69Z"/>
  </g>
  <g>
    <path class="cls-1" d="M1033.69,8H281.52c-37.8,0-68.38,30.58-68.38,68.38v68.38h649.6c58.77,0,102.57,45.4,102.57,102.57v376.08h68.38c37.8,0,68.38-30.58,68.38-68.38V76.38c0-37.8-30.58-68.38-68.38-68.38Z"/>
    <path class="cls-1" d="M862.74,178.95H76.38c-37.8,0-68.38,30.58-68.38,68.38v512.84c0,37.8,30.58,68.38,68.38,68.38h119.66c9.45,0,17.09,7.64,17.09,17.09v188.04c0,27.64,16.63,52.62,42.21,63.17,8.48,3.54,17.35,5.21,26.17,5.21,17.76,0,35.25-6.94,48.34-20.04l241.99-241.99s8.82-11.49,28.58-11.49,262.3,0,262.3,0c37.8,0,68.38-30.58,68.38-68.38V247.33c0-37.76-30.62-68.38-68.38-68.38ZM230.23,384.08h222.23c9.45,0,17.09,7.64,17.09,17.09s-7.64,17.09-17.09,17.09h-222.23c-9.45,0-17.09-7.64-17.09-17.09s7.64-17.09,17.09-17.09ZM589.22,623.41H230.23c-9.45,0-17.09-7.64-17.09-17.09s7.64-17.09,17.09-17.09h358.99c9.45,0,17.09,7.64,17.09,17.09s-7.64,17.09-17.09,17.09ZM708.89,520.84H230.23c-9.45,0-17.09-7.64-17.09-17.09s7.64-17.09,17.09-17.09h478.65c9.45,0,17.09,7.64,17.09,17.09s-7.64,17.09-17.09,17.09Z"/>
  </g>
</svg>