<?xml version="1.0" encoding="UTF-8"?>
<svg xmlns="http://www.w3.org/2000/svg" version="1.1" viewBox="0 0 198.43 154.16">
  <defs>
    <style>
      .cls-1 {
        fill: #4a4849;
      }

      .cls-2 {
        fill: none;
      }
    </style>
  </defs>
  <!-- Generator: Adobe Illustrator 28.6.0, SVG Export Plug-In . SVG Version: 1.2.0 Build 709)  -->
  <g>
    <g id="Layer_1">
      <g id="gjszxg">
        <g>
          <path class="cls-1" d="M113.02,124.23c-8.06,2.81-16.86,2.71-24.86-.26-5.95-2.21-11.65-4.55-16.45-8.09-10.96-8.09-20.16-18.63-29.7-28.52-5.84-6.05-5.27-12.83.56-18.76,8.9-9.05,17.58-18.37,27.17-26.66,18.27-15.8,44.9-15.33,63.03.88,8.93,7.98,17.18,16.72,25.6,25.25,5.7,5.78,7.19,12.67,1.39,18.8-9.92,10.48-19.79,21.31-31.24,29.96-4.4,3.32-9.75,5.41-15.5,7.41ZM151.43,77.78c.66-.69.63-1.8-.08-2.45-7.47-6.78-14.61-13.27-21.75-19.77-2.09-1.9-4.03-3.98-6.25-5.72-12.57-9.83-30.13-11.31-42.46-1.68-10.82,8.46-20.26,18.66-29.94,27.93-.67.64-.69,1.72-.05,2.39,9.68,10.2,17.97,20.13,27.65,28.45,12.61,10.85,31.54,10.9,44.11.16,9.74-8.33,18.11-18.23,28.78-29.34Z"/>
          <path class="cls-2" d="M151.35,75.33c.71.64.74,1.76.08,2.45-10.67,11.1-19.04,21.01-28.78,29.34-12.56,10.74-30.73,10.07-44.11-.16-10.14-7.76-17.97-18.26-27.65-28.45-.64-.67-.62-1.75.05-2.39,9.69-9.27,19.12-19.47,29.94-27.93,12.33-9.64,29.89-8.16,42.46,1.68,2.22,1.73,4.16,3.82,6.25,5.72,7.14,6.5,14.28,12.98,21.75,19.77ZM77.21,78.74c-.1,8.11,3.44,15.17,10.27,19.5,9.63,6.11,22.44,4.85,30.41-3.3s8.99-20.94,2.34-30.34c-6.19-8.74-15.35-11.52-25.08-8.55-.66.2-1.13.8-1.17,1.49-.33,5.53.51,11.19-1.9,14.55-2.12,2.96-7.89,3.35-13.69,5.09-.69.21-1.18.84-1.18,1.56Z"/>
          <path class="cls-1" d="M77.21,78.74c0-.72.5-1.35,1.18-1.56,5.8-1.74,11.57-2.13,13.69-5.09,2.4-3.37,1.56-9.02,1.9-14.55.04-.69.51-1.29,1.17-1.49,9.73-2.97,18.88-.19,25.08,8.55,6.66,9.4,5.82,22-2.34,30.34s-20.79,9.41-30.41,3.3c-6.83-4.33-10.37-11.4-10.27-19.5Z"/>
        </g>
      </g>
    </g>
  </g>
</svg>